<svg xmlns="http://www.w3.org/2000/svg" version="1.1" xmlns:xlink="http://www.w3.org/1999/xlink" xmlns:svgjs="http://svgjs.dev/svgjs" width="128" height="128" viewBox="0 0 128 128"><g transform="matrix(0.8046875,0,0,0.8046875,12.278416296476621,9.55829967105263)"><svg viewBox="0 0 89 95" data-background-color="#ffffff" preserveAspectRatio="xMidYMid meet" height="136" width="128" xmlns="http://www.w3.org/2000/svg" xmlns:xlink="http://www.w3.org/1999/xlink"><g id="tight-bounds" transform="matrix(1,0,0,1,0.19146553022893897,-0.24049999999999727)"><svg viewBox="0 0 88.61706893954211 95.48099999999998" height="95.48099999999998" width="88.61706893954211"><g><svg viewBox="0 0 88.61706893954211 95.48099999999998" height="95.48099999999998" width="88.61706893954211"><g><svg viewBox="0 0 88.61706893954211 95.48099999999998" height="95.48099999999998" width="88.61706893954211"><g id="textblocktransform"><svg viewBox="0 0 88.61706893954211 95.48099999999998" height="95.48099999999998" width="88.61706893954211" id="textblock"><g><svg viewBox="0 0 88.61706893954211 95.48099999999998" height="95.48099999999998" width="88.61706893954211"><g><svg viewBox="0 0 88.61706893954211 95.48099999999998" height="95.48099999999998" width="88.61706893954211"><g><svg xmlns="http://www.w3.org/2000/svg" xmlns:xlink="http://www.w3.org/1999/xlink" version="1.1" x="0" y="0" viewBox="8.235 5 83.53 89.99990662567731" enable-background="new 0 0 100 100" xml:space="preserve" height="95.48099999999998" width="88.61706893954211" class="icon-icon-0" data-fill-palette-color="accent" id="icon-0"><path d="M91.765 5C86.644 5.851 81.682 5.057 76.7 5.428 51.89 7.285 53.943 24.559 54.382 36.34 36.994 38.981 15.8 33.659 8.235 35.401c2.514 3.842 8.32 9.548 12.654 10.844-2.46 1.748-5.749 2.09-8.725 3.111 4.122 3.155 8.116 6.159 13.106 8.13-2.399 0.933-4.68 1.98-7.188 2.674 5.784 5.971 15.066 8.313 23.137 8.898-6.33 17.996-18.429 17.633-25.774 19.441 12.804 5.465 32.687 8.645 42.467 4.826 15.07-5.884 23.272-15.016 28.616-30.483 3.334-9.653 1.629-17.536-0.857-27.63-1.585-6.439-2.311-8.993-1.78-15.564C84.565 11.282 89.984 6.331 91.765 5z" fill="#471aa0" data-fill-palette-color="accent"></path></svg></g></svg></g></svg></g></svg></g></svg></g><g></g></svg></g><defs></defs></svg><rect width="88.61706893954211" height="95.48099999999998" fill="none" stroke="none" visibility="hidden"></rect></g></svg></g></svg>